<?xml version="1.0" encoding="utf-8"?>
<!-- Generator: Adobe Illustrator 18.1.1, SVG Export Plug-In . SVG Version: 6.00 Build 0)  -->
<svg version="1.1" id="Layer_1" xmlns="http://www.w3.org/2000/svg" xmlns:xlink="http://www.w3.org/1999/xlink" x="0px" y="0px"
	 viewBox="0 0 100 100" enable-background="new 0 0 100 100" xml:space="preserve">
<text transform="matrix(1 0 0 1 16.1094 42.5996)" fill="#FFFFFF" font-family="'Lato-Black'" font-size="29.4416">TED</text>
<text transform="matrix(1 0 0 1 72.8257 31.9341)" fill="#FFFFFF" font-family="'Lato-Black'" font-size="13.421">X</text>
<text transform="matrix(1 0 0 1 16.7945 56.0503)" fill="#FFFFFF" font-family="'Lato-Black'" font-size="13.421">BERKELEY</text>
<text transform="matrix(1 0 0 1 16.7945 80.2574)" opacity="0.5" fill="#FFFFFF" font-family="'Lato-Black'" font-size="28.5355">2016</text>
<g opacity="0.5">
	<g>
		<polyline fill="none" stroke="#FFFFFF" stroke-width="3" stroke-miterlimit="10" points="94.3,88.7 94.3,94.7 88.3,94.7 		"/>
		
			<line fill="none" stroke="#FFFFFF" stroke-width="3" stroke-miterlimit="10" stroke-dasharray="10.8437,10.8437" x1="77.4" y1="94.7" x2="17.8" y2="94.7"/>
		<polyline fill="none" stroke="#FFFFFF" stroke-width="3" stroke-miterlimit="10" points="12.4,94.7 6.4,94.7 6.4,88.7 		"/>
		
			<line fill="none" stroke="#FFFFFF" stroke-width="3" stroke-miterlimit="10" stroke-dasharray="10.8437,10.8437" x1="6.4" y1="77.8" x2="6.4" y2="18.2"/>
		<polyline fill="none" stroke="#FFFFFF" stroke-width="3" stroke-miterlimit="10" points="6.4,12.7 6.4,6.7 12.4,6.7 		"/>
		
			<line fill="none" stroke="#FFFFFF" stroke-width="3" stroke-miterlimit="10" stroke-dasharray="10.8437,10.8437" x1="23.2" y1="6.7" x2="82.8" y2="6.7"/>
		<polyline fill="none" stroke="#FFFFFF" stroke-width="3" stroke-miterlimit="10" points="88.3,6.7 94.3,6.7 94.3,12.7 		"/>
		
			<line fill="none" stroke="#FFFFFF" stroke-width="3" stroke-miterlimit="10" stroke-dasharray="10.8437,10.8437" x1="94.3" y1="23.6" x2="94.3" y2="83.2"/>
	</g>
</g>
</svg>
